<svg width="25" height="24" viewBox="0 0 25 24" fill="none" xmlns="http://www.w3.org/2000/svg">
<path d="M19.5 12.4961V17.4961C19.5 18.0461 19.05 18.4961 18.5 18.4961H6.5C5.95 18.4961 5.5 18.0461 5.5 17.4961V12.4961C5.5 11.9461 5.05 11.4961 4.5 11.4961C3.95 11.4961 3.5 11.9461 3.5 12.4961V18.4961C3.5 19.5961 4.4 20.4961 5.5 20.4961H19.5C20.6 20.4961 21.5 19.5961 21.5 18.4961V12.4961C21.5 11.9461 21.05 11.4961 20.5 11.4961C19.95 11.4961 19.5 11.9461 19.5 12.4961ZM13.5 12.1661L15.38 10.2861C15.4726 10.1935 15.5825 10.1201 15.7035 10.07C15.8244 10.0199 15.9541 9.99407 16.085 9.99407C16.2159 9.99407 16.3456 10.0199 16.4665 10.07C16.5875 10.1201 16.6974 10.1935 16.79 10.2861C16.8826 10.3787 16.956 10.4886 17.0061 10.6096C17.0562 10.7305 17.082 10.8602 17.082 10.9911C17.082 11.122 17.0562 11.2517 17.0061 11.3726C16.956 11.4936 16.8826 11.6035 16.79 11.6961L13.2 15.2861C13.1075 15.3788 12.9976 15.4523 12.8766 15.5025C12.7557 15.5527 12.626 15.5785 12.495 15.5785C12.364 15.5785 12.2343 15.5527 12.1134 15.5025C11.9924 15.4523 11.8825 15.3788 11.79 15.2861L8.2 11.6961C8.01302 11.5091 7.90798 11.2555 7.90798 10.9911C7.90798 10.7267 8.01302 10.4731 8.2 10.2861C8.38698 10.0991 8.64057 9.99407 8.905 9.99407C9.16943 9.99407 9.42302 10.0991 9.61 10.2861L11.5 12.1661V3.49609C11.5 2.94609 11.95 2.49609 12.5 2.49609C13.05 2.49609 13.5 2.94609 13.5 3.49609V12.1661Z" fill="white"/>
</svg>
