<svg width="100" height="37" viewBox="0 0 100 37" fill="none" xmlns="http://www.w3.org/2000/svg">
<g filter="url(#filter0_d_5178_11732)">
<path fill-rule="evenodd" clip-rule="evenodd" d="M13.0897 4.15348C18.5317 3.20126 23.7211 6.80716 24.6807 12.2075C25.6403 17.6078 22.0066 22.7576 16.5646 23.7098L13.0389 24.3267C10.7824 24.7215 8.8349 26.1257 7.75924 28.1333C7.50999 28.5985 6.80875 28.4883 6.71655 27.9695L4.116 13.3339C3.3917 9.25763 6.13451 5.37047 10.2423 4.65171L13.0897 4.15348ZM13.7263 9.67062C15.9944 9.27376 18.1572 10.7766 18.5571 13.0273C18.9513 15.2459 17.4846 17.3699 15.2573 17.8058L13.6477 18.1208C12.7731 18.2919 12.016 18.8301 11.5713 19.5967C11.4635 19.7825 11.1807 19.7334 11.143 19.5223L10.4993 15.9152C10.402 15.3679 10.3079 14.8366 10.2151 14.3123C9.83335 12.1549 11.2858 10.0976 13.4596 9.71728L13.7263 9.67062Z" fill="white"/>
<path d="M45.6875 6.5791H43.3424V15.0177H45.6875V6.5791ZM32.5957 14.4453H34.0545C37.8213 14.4637 39.9079 14.3437 42.1976 13.8544L41.9391 12.0633C39.9079 12.4695 38.0522 12.5895 34.9592 12.5988V9.33041H40.6096V7.4839H32.5957V14.4453ZM34.4422 23.2901H46.1307V21.462H36.7873V20.2618H45.6875V15.6824H34.4422V17.5105H43.3794V18.5815H34.4422V23.2901Z" fill="white"/>
<path d="M62.0661 6.5791H59.7211V23.4193H62.0661V6.5791ZM48.8635 9.88437H54.4585V12.5988H48.882V19.4863H50.3961C53.4614 19.4863 55.9634 19.3847 58.7239 18.8954L58.5208 16.9935C56.0557 17.3997 53.8861 17.529 51.3194 17.5474V14.4637H56.8589V7.98246H48.8635V9.88437Z" fill="white"/>
<path d="M78.5001 6.5791H76.1735V12.5064H73.0529V7.87166H70.7448V11.9525H67.2918V7.87166H64.9467V19.4309H73.0529V14.4083H76.1735V23.4193H78.5001V6.5791ZM67.2918 17.5474V13.799H70.7448V17.5474H67.2918Z" fill="white"/>
<path d="M84.9445 6.85608H82.6179V12.5064H94.0294V6.85608H91.6843V8.03785H84.9445V6.85608ZM80.6606 15.2577H95.9867V13.4297H80.6606V15.2577ZM82.4332 17.9721H91.7951V18.8584H82.4517V23.2716H94.5648V21.499H84.7598V20.5018H94.1217V16.2549H82.4332V17.9721ZM84.9445 10.7522V9.73665H91.6843V10.7522H84.9445Z" fill="white"/>
</g>
<defs>
<filter id="filter0_d_5178_11732" x="0" y="0" width="104" height="38" filterUnits="userSpaceOnUse" color-interpolation-filters="sRGB">
<feFlood flood-opacity="0" result="BackgroundImageFix"/>
<feColorMatrix in="SourceAlpha" type="matrix" values="0 0 0 0 0 0 0 0 0 0 0 0 0 0 0 0 0 0 127 0" result="hardAlpha"/>
<feOffset dy="4"/>
<feGaussianBlur stdDeviation="2"/>
<feComposite in2="hardAlpha" operator="out"/>
<feColorMatrix type="matrix" values="0 0 0 0 0 0 0 0 0 0 0 0 0 0 0 0 0 0 0.25 0"/>
<feBlend mode="normal" in2="BackgroundImageFix" result="effect1_dropShadow_5178_11732"/>
<feBlend mode="normal" in="SourceGraphic" in2="effect1_dropShadow_5178_11732" result="shape"/>
</filter>
</defs>
</svg>
